<svg width="1359" height="116" viewBox="0 0 1359 116" fill="none" xmlns="http://www.w3.org/2000/svg">
<path d="M107.065 57.8045V45.9218C107.065 45.6993 107.109 45.479 107.195 45.274L110.694 36.8347H117.952L121.45 45.263C121.537 45.4668 121.581 45.6862 121.58 45.9077V57.7905" stroke="#175F9F" stroke-width="2" stroke-linecap="round" stroke-linejoin="round"/>
<path d="M110.695 36.8338V24.6001L114.323 15.8621L117.952 24.6001V36.8338" stroke="#175F9F" stroke-width="2" stroke-linecap="round" stroke-linejoin="round"/>
<path d="M96.1781 89.2592H81.6626V54.3079L87.6361 48.5551C87.9827 48.2256 88.4426 48.0419 88.9209 48.0419C89.3991 48.0419 89.859 48.2256 90.2056 48.5551L96.1791 54.3079L96.1781 89.2592Z" stroke="#175F9F" stroke-width="2" stroke-linecap="round" stroke-linejoin="round"/>
<path d="M81.6626 54.309V47.3187" stroke="#175F9F" stroke-width="2" stroke-linecap="round" stroke-linejoin="round"/>
<path d="M96.1782 54.309V47.3187" stroke="#175F9F" stroke-width="2" stroke-linecap="round" stroke-linejoin="round"/>
<path d="M132.469 89.2592H146.984V54.3079L141.011 48.5551C140.664 48.2256 140.204 48.0419 139.726 48.0419C139.248 48.0419 138.788 48.2256 138.441 48.5551L132.469 54.3079V89.2592Z" stroke="#175F9F" stroke-width="2" stroke-linecap="round" stroke-linejoin="round"/>
<path d="M146.984 54.309V47.3187" stroke="#175F9F" stroke-width="2" stroke-linecap="round" stroke-linejoin="round"/>
<path d="M132.469 54.309V47.3187" stroke="#175F9F" stroke-width="2" stroke-linecap="round" stroke-linejoin="round"/>
<path d="M74.4053 64.7938H81.6635" stroke="#175F9F" stroke-width="2" stroke-linecap="round" stroke-linejoin="round"/>
<path d="M54.9795 89.2592H81.6636" stroke="#175F9F" stroke-width="2" stroke-linecap="round" stroke-linejoin="round"/>
<path d="M157.871 64.7938H146.984" stroke="#175F9F" stroke-width="2" stroke-linecap="round" stroke-linejoin="round"/>
<path d="M146.984 89.2592H176.363L186.682 68.6746" stroke="#175F9F" stroke-width="2" stroke-linecap="round" stroke-linejoin="round"/>
<path d="M96.1782 57.8036H132.468V89.2592H96.1782V57.8036Z" stroke="#175F9F" stroke-width="2" stroke-linecap="round" stroke-linejoin="round"/>
<path d="M88.9209 57.8036V64.7938" stroke="#175F9F" stroke-width="2" stroke-linecap="round" stroke-linejoin="round"/>
<path d="M139.726 57.8036V64.7938" stroke="#175F9F" stroke-width="2" stroke-linecap="round" stroke-linejoin="round"/>
<path d="M96.1782 64.7938H132.468" stroke="#175F9F" stroke-width="2" stroke-linecap="round" stroke-linejoin="round"/>
<path d="M74.4053 71.7841V75.2797" stroke="#175F9F" stroke-width="2" stroke-linecap="round" stroke-linejoin="round"/>
<path d="M103.436 71.7841V75.2797" stroke="#175F9F" stroke-width="2" stroke-linecap="round" stroke-linejoin="round"/>
<path d="M110.695 71.7841V75.2797" stroke="#175F9F" stroke-width="2" stroke-linecap="round" stroke-linejoin="round"/>
<path d="M117.952 71.7841V75.2797" stroke="#175F9F" stroke-width="2" stroke-linecap="round" stroke-linejoin="round"/>
<path d="M125.21 71.7841V75.2797" stroke="#175F9F" stroke-width="2" stroke-linecap="round" stroke-linejoin="round"/>
<path d="M154.241 71.7841V75.2797" stroke="#175F9F" stroke-width="2" stroke-linecap="round" stroke-linejoin="round"/>
<path d="M114.323 15.8631V8.8728" stroke="#175F9F" stroke-width="2" stroke-linecap="round" stroke-linejoin="round"/>
<path d="M114.323 43.8231V47.3177" stroke="#175F9F" stroke-width="2" stroke-linecap="round" stroke-linejoin="round"/>
<path d="M1100.7 113.646C1100.7 105.066 1110.2 95.8884 1121.94 95.8884C1133.67 95.8884 1143.18 105.066 1143.18 113.646" stroke="#175F9F" stroke-width="2" stroke-linecap="round" stroke-linejoin="round"/>
<path d="M1121.94 31.9553V39.9574" stroke="#175F9F" stroke-width="2" stroke-linecap="round" stroke-linejoin="round"/>
<path d="M1118.17 50.6157C1116.7 55.1335 1115.08 59.5694 1113.28 63.9234C1109.5 73.1535 1104.97 82.0617 1099.74 90.5607C1094.77 98.6629 1089.18 106.373 1083.03 113.624" stroke="#175F9F" stroke-width="2" stroke-linecap="round" stroke-linejoin="round"/>
<path d="M1125.7 50.6157C1127.17 55.1295 1128.8 59.5654 1130.59 63.9234C1134.36 73.0865 1138.86 81.9336 1144.04 90.3802C1149.05 98.5439 1154.68 106.315 1160.86 113.626" stroke="#175F9F" stroke-width="2" stroke-linecap="round" stroke-linejoin="round"/>
<path d="M1105.89 67.4862H1137.75" stroke="#175F9F" stroke-width="2" stroke-linecap="round" stroke-linejoin="round"/>
<path d="M1086.36 88.7819H1148.49" stroke="#175F9F" stroke-width="2" stroke-linecap="round" stroke-linejoin="round"/>
<path d="M1127.25 50.6157H1116.63V45.288C1116.62 44.5847 1116.75 43.8864 1117.01 43.2338C1117.27 42.5812 1117.66 41.9873 1118.16 41.4865C1118.65 40.9857 1119.24 40.588 1119.89 40.3166C1120.54 40.0451 1121.23 39.9054 1121.94 39.9054C1122.64 39.9054 1123.34 40.0451 1123.99 40.3166C1124.64 40.588 1125.22 40.9857 1125.72 41.4865C1126.21 41.9873 1126.6 42.5812 1126.86 43.2338C1127.13 43.8864 1127.26 44.5847 1127.25 45.288V50.6157Z" stroke="#175F9F" stroke-width="2" stroke-linecap="round" stroke-linejoin="round"/>
<path d="M788.653 84.1323L890.69 82.9711L918.99 113.647" stroke="#175F9F" stroke-width="2" stroke-linecap="round" stroke-linejoin="round"/>
<path d="M834.047 82.9721L848.32 46.312C848.457 45.9863 848.688 45.7084 848.982 45.5128C849.276 45.3173 849.622 45.213 849.975 45.213C850.329 45.213 850.674 45.3173 850.969 45.5128C851.263 45.7084 851.493 45.9863 851.63 46.312L865.904 82.9721" stroke="#175F9F" stroke-width="2" stroke-linecap="round" stroke-linejoin="round"/>
<path d="M821.409 59.1576C819.263 55.8518 817.758 52.1723 816.973 48.3107" stroke="#175F9F" stroke-width="2" stroke-linecap="round" stroke-linejoin="round"/>
<path d="M869.973 68.1041C863.993 72.3262 856.829 74.5464 849.509 74.4462C842.188 74.3461 835.088 71.9308 829.226 67.5466" stroke="#175F9F" stroke-width="2" stroke-linecap="round" stroke-linejoin="round"/>
<path d="M882.983 48.3046C882.063 52.8083 880.172 57.0576 877.443 60.7569" stroke="#175F9F" stroke-width="2" stroke-linecap="round" stroke-linejoin="round"/>
<path d="M878.653 25.0936C881.271 29.1817 882.904 33.821 883.425 38.647" stroke="#175F9F" stroke-width="2" stroke-linecap="round" stroke-linejoin="round"/>
<path d="M855.288 10.0673C860.893 10.9103 866.199 13.1367 870.727 16.5451" stroke="#175F9F" stroke-width="2" stroke-linecap="round" stroke-linejoin="round"/>
<path d="M830.334 15.7609C834.616 12.7961 839.519 10.8487 844.668 10.0673" stroke="#175F9F" stroke-width="2" stroke-linecap="round" stroke-linejoin="round"/>
<path d="M816.531 38.6471C817.107 33.3804 819.004 28.3445 822.047 24.0067" stroke="#175F9F" stroke-width="2" stroke-linecap="round" stroke-linejoin="round"/>
<path d="M849.979 62.5138C861.713 62.5138 871.22 53.3545 871.22 42.0574C871.22 30.7603 861.711 21.6011 849.979 21.6011C838.246 21.6011 828.737 30.7583 828.737 42.0564C828.737 53.3545 838.246 62.5138 849.979 62.5138Z" stroke="#175F9F" stroke-width="2" stroke-linecap="round" stroke-linejoin="round"/>
<path d="M849.978 21.6241V14.7803" stroke="#175F9F" stroke-width="2" stroke-linecap="round" stroke-linejoin="round"/>
<path d="M834.96 27.5905L829.728 22.5507" stroke="#175F9F" stroke-width="2" stroke-linecap="round" stroke-linejoin="round"/>
<path d="M828.737 42.0564H819.886" stroke="#175F9F" stroke-width="2" stroke-linecap="round" stroke-linejoin="round"/>
<path d="M834.956 56.5222L830.506 60.809" stroke="#175F9F" stroke-width="2" stroke-linecap="round" stroke-linejoin="round"/>
<path d="M864.998 56.5222L869.972 61.3134" stroke="#175F9F" stroke-width="2" stroke-linecap="round" stroke-linejoin="round"/>
<path d="M871.219 42.0564H880.069" stroke="#175F9F" stroke-width="2" stroke-linecap="round" stroke-linejoin="round"/>
<path d="M864.998 27.5875L869.689 23.0701" stroke="#175F9F" stroke-width="2" stroke-linecap="round" stroke-linejoin="round"/>
<path d="M819.886 43.761C819.824 45.1272 819.237 46.4168 818.248 47.3616C817.259 48.3063 815.944 48.8336 814.576 48.8336C813.208 48.8336 811.893 48.3063 810.904 47.3616C809.915 46.4168 809.328 45.1272 809.266 43.761V40.3516C809.275 39.8909 809.467 39.4527 809.798 39.133C810.13 38.8134 810.576 38.6386 811.036 38.6469H818.117C818.578 38.6386 819.023 38.8134 819.355 39.133C819.687 39.4527 819.878 39.8909 819.887 40.3516L819.886 43.761Z" stroke="#175F9F" stroke-width="2" stroke-linecap="round" stroke-linejoin="round"/>
<path d="M830.506 19.8944C830.444 21.2606 829.857 22.5502 828.868 23.495C827.879 24.4398 826.564 24.9669 825.196 24.9669C823.828 24.9669 822.513 24.4398 821.524 23.495C820.535 22.5502 819.949 21.2606 819.886 19.8944V16.485C819.895 16.0243 820.087 15.5861 820.419 15.2665C820.75 14.9468 821.196 14.772 821.656 14.7803H828.737C829.198 14.772 829.643 14.9468 829.975 15.2665C830.307 15.5861 830.498 16.0243 830.507 16.485L830.506 19.8944Z" stroke="#175F9F" stroke-width="2" stroke-linecap="round" stroke-linejoin="round"/>
<path d="M855.288 9.66513C855.226 11.0313 854.639 12.321 853.65 13.2657C852.661 14.2105 851.346 14.7377 849.978 14.7377C848.61 14.7377 847.295 14.2105 846.306 13.2657C845.317 12.321 844.73 11.0313 844.668 9.66513V6.25571C844.677 5.79506 844.868 5.35683 845.2 5.03721C845.532 4.71758 845.977 4.54274 846.438 4.55107H853.519C853.98 4.54274 854.425 4.71758 854.757 5.03721C855.089 5.35683 855.28 5.79506 855.289 6.25571L855.288 9.66513Z" stroke="#175F9F" stroke-width="2" stroke-linecap="round" stroke-linejoin="round"/>
<path d="M830.506 60.809C830.497 60.3483 830.306 59.9101 829.974 59.5904C829.642 59.2708 829.197 59.096 828.736 59.1043H821.655C821.195 59.096 820.749 59.2708 820.418 59.5904C820.086 59.9101 819.894 60.3483 819.885 60.809V64.2183C819.948 65.5846 820.534 66.8742 821.523 67.819C822.512 68.7637 823.827 69.291 825.195 69.291C826.563 69.291 827.878 68.7637 828.867 67.819C829.856 66.8742 830.443 65.5846 830.505 64.2183L830.506 60.809Z" stroke="#175F9F" stroke-width="2" stroke-linecap="round" stroke-linejoin="round"/>
<path d="M880.069 43.761C880.132 45.1272 880.718 46.4168 881.707 47.3616C882.696 48.3063 884.012 48.8336 885.379 48.8336C886.747 48.8336 888.062 48.3063 889.051 47.3616C890.04 46.4168 890.627 45.1272 890.689 43.761V40.3516C890.68 39.8909 890.489 39.4527 890.157 39.133C889.825 38.8134 889.38 38.6386 888.919 38.6469H881.839C881.378 38.6386 880.933 38.8134 880.601 39.133C880.269 39.4527 880.077 39.8909 880.068 40.3516L880.069 43.761Z" stroke="#175F9F" stroke-width="2" stroke-linecap="round" stroke-linejoin="round"/>
<path d="M869.449 21.599C869.511 22.9652 870.097 24.2548 871.086 25.1996C872.075 26.1444 873.391 26.6716 874.759 26.6716C876.126 26.6716 877.442 26.1444 878.431 25.1996C879.42 24.2548 880.006 22.9652 880.069 21.599V18.1896C880.06 17.729 879.868 17.2907 879.536 16.971C879.204 16.6514 878.759 16.4766 878.298 16.4849H871.218C870.757 16.4766 870.312 16.6514 869.98 16.971C869.648 17.2907 869.456 17.729 869.448 18.1896L869.449 21.599Z" stroke="#175F9F" stroke-width="2" stroke-linecap="round" stroke-linejoin="round"/>
<path d="M869.448 62.5137C869.457 62.0531 869.649 61.6148 869.981 61.2951C870.313 60.9755 870.758 60.8007 871.219 60.809H878.299C878.76 60.8007 879.205 60.9755 879.537 61.2951C879.869 61.6148 880.061 62.0531 880.07 62.5137V65.9231C880.007 67.2893 879.421 68.5789 878.432 69.5237C877.443 70.4685 876.127 70.9957 874.76 70.9957C873.392 70.9957 872.076 70.4685 871.087 69.5237C870.098 68.5789 869.512 67.2893 869.449 65.9231L869.448 62.5137Z" stroke="#175F9F" stroke-width="2" stroke-linecap="round" stroke-linejoin="round"/>
<path d="M775.85 41.7212L783.965 53.9348" stroke="#175F9F" stroke-width="2" stroke-linecap="round" stroke-linejoin="round"/>
<path d="M747.442 53.9348L755.559 41.7212" stroke="#175F9F" stroke-width="2" stroke-linecap="round" stroke-linejoin="round"/>
<path d="M765.704 90.5758C768.524 90.5854 771.284 89.7579 773.634 88.1981C775.984 86.6384 777.818 84.4165 778.905 81.8139C779.991 79.2113 780.28 76.3449 779.736 73.5778C779.192 70.8106 777.839 68.2672 775.848 66.2694C773.857 64.2716 771.318 62.9094 768.553 62.3552C765.787 61.801 762.919 62.0799 760.312 63.1563C757.705 64.2328 755.476 66.0584 753.907 68.4022C752.339 70.746 751.501 73.5025 751.5 76.3226C751.497 78.191 751.861 80.0418 752.573 81.7694C753.285 83.4969 754.33 85.0674 755.649 86.391C756.968 87.7146 758.535 88.7654 760.26 89.4834C761.985 90.2015 763.835 90.5727 765.704 90.5758V90.5758Z" stroke="#175F9F" stroke-width="2" stroke-linecap="round" stroke-linejoin="round"/>
<path d="M743.385 55.9704C743.384 55.4315 743.597 54.9143 743.977 54.5326C744.358 54.1509 744.874 53.9359 745.413 53.9348H785.994C786.533 53.9359 787.05 54.1509 787.43 54.5326C787.811 54.9143 788.024 55.4315 788.023 55.9704V96.6826C788.024 97.2215 787.811 97.7387 787.43 98.1204C787.05 98.5021 786.533 98.7171 785.994 98.7182H745.413C744.874 98.7171 744.358 98.5021 743.977 98.1204C743.597 97.7387 743.384 97.2215 743.385 96.6826V55.9704Z" stroke="#175F9F" stroke-width="2" stroke-linecap="round" stroke-linejoin="round"/>
<path d="M763.675 70.2197V78.3622H769.762" stroke="#175F9F" stroke-width="2" stroke-linecap="round" stroke-linejoin="round"/>
<path d="M755.559 41.7182L763.89 25.0011C764.058 24.6637 764.317 24.3798 764.637 24.1814C764.958 23.9829 765.327 23.8778 765.704 23.8778C766.081 23.8778 766.451 23.9829 766.771 24.1814C767.091 24.3798 767.35 24.6637 767.518 25.0011L775.849 41.7182H755.559Z" stroke="#175F9F" stroke-width="2" stroke-linecap="round" stroke-linejoin="round"/>
<path d="M783.965 98.7192V112.964C783.966 113.503 783.753 114.021 783.372 114.402C782.992 114.784 782.475 114.999 781.936 115H749.471C748.932 114.999 748.416 114.784 748.035 114.402C747.655 114.021 747.442 113.503 747.442 112.964V98.7151" stroke="#175F9F" stroke-width="2" stroke-linecap="round" stroke-linejoin="round"/>
<path d="M1188.28 88.786L1198.73 31.7037" stroke="#175F9F" stroke-width="2" stroke-linecap="round" stroke-linejoin="round"/>
<path d="M1167.36 26.3721L1154.65 88.785" stroke="#175F9F" stroke-width="2" stroke-linecap="round" stroke-linejoin="round"/>
<path d="M1191.76 30.5164L1193.61 20.4436" stroke="#175F9F" stroke-width="2" stroke-linecap="round" stroke-linejoin="round"/>
<path d="M1176.18 17.4855L1174.33 27.5582" stroke="#175F9F" stroke-width="2" stroke-linecap="round" stroke-linejoin="round"/>
<path d="M1161.41 39.2153L1199.76 45.7333" stroke="#175F9F" stroke-width="2" stroke-linecap="round" stroke-linejoin="round"/>
<path d="M1163.87 25.7783L1202.23 32.2963" stroke="#175F9F" stroke-width="2" stroke-linecap="round" stroke-linejoin="round"/>
<path d="M1156.5 66.0693L1194.85 72.5873" stroke="#175F9F" stroke-width="2" stroke-linecap="round" stroke-linejoin="round"/>
<path d="M1158.95 52.6404L1197.31 59.1583" stroke="#175F9F" stroke-width="2" stroke-linecap="round" stroke-linejoin="round"/>
<path d="M1172.69 16.8928L1197.09 21.0332" stroke="#175F9F" stroke-width="2" stroke-linecap="round" stroke-linejoin="round"/>
<path d="M1184.89 18.9636L1186.12 12.2451" stroke="#175F9F" stroke-width="2" stroke-linecap="round" stroke-linejoin="round"/>
<path d="M1175.89 88.7819L1176.98 82.4926C1177.12 81.8002 1177.07 81.0836 1176.83 80.4189C1176.59 79.7543 1176.18 79.1662 1175.64 78.7172C1175.08 78.2556 1174.41 77.9434 1173.7 77.8099C1172.99 77.6764 1172.25 77.7261 1171.56 77.9541C1170.89 78.1726 1170.28 78.5665 1169.8 79.096C1169.32 79.6254 1168.99 80.2717 1168.84 80.9694L1167.04 88.7819" stroke="#175F9F" stroke-width="2" stroke-linecap="round" stroke-linejoin="round"/>
<path d="M1138.5 88.7869H1235.75" stroke="#175F9F" stroke-width="2" stroke-linecap="round" stroke-linejoin="round"/>
<path d="M710.14 84.9854L703.105 18.9214C703.074 18.6435 702.974 18.3776 702.815 18.1473L697.452 10.3979C697.285 10.1626 697.064 9.9707 696.808 9.83826C696.552 9.70583 696.267 9.63672 695.979 9.63672C695.69 9.63672 695.406 9.70583 695.15 9.83826C694.894 9.9707 694.673 10.1626 694.506 10.3979L689.139 18.1453C688.981 18.3756 688.881 18.6415 688.849 18.9194L681.818 84.9854" stroke="#175F9F" stroke-width="2" stroke-linecap="round" stroke-linejoin="round"/>
<path d="M664.117 84.9854H745.571" stroke="#175F9F" stroke-width="2" stroke-linecap="round" stroke-linejoin="round"/>
<path d="M736.691 30.4321C738.351 30.3763 739.96 29.8372 741.318 28.8807C742.677 27.9243 743.726 26.5921 744.339 25.0478C744.951 23.5034 745.099 21.8138 744.765 20.1865C744.43 18.5592 743.628 17.0649 742.457 15.8868C741.285 14.7087 739.795 13.8981 738.17 13.5544C736.544 13.2108 734.853 13.3491 733.305 13.9523C731.757 14.5554 730.419 15.5973 729.454 16.9501C728.49 18.3028 727.941 19.9077 727.876 21.5677C727.011 20.8062 725.927 20.3375 724.779 20.2283C723.632 20.1192 722.479 20.3753 721.486 20.96C720.509 21.5212 719.748 22.3945 719.326 23.4397C718.904 24.4849 718.846 25.6415 719.16 26.7239C719.501 27.8148 720.186 28.7661 721.112 29.435C722.039 30.104 723.158 30.4545 724.3 30.4341L736.691 30.4321Z" stroke="#175F9F" stroke-width="2" stroke-linecap="round" stroke-linejoin="round"/>
<path d="M1085.38 28.4677C1080.58 27.4366 1076.24 24.8567 1073.05 21.1246C1069.86 17.3926 1067.98 12.715 1067.7 7.81087C1067.7 19.5813 1056.42 29.1205 1044.69 29.1205C1032.96 29.1205 1021.68 19.5782 1021.68 7.80481C1021.4 12.724 1019.51 17.4154 1016.3 21.1536C1013.09 24.8918 1008.74 27.4687 1003.92 28.4858" stroke="#175F9F" stroke-width="2" stroke-linecap="round" stroke-linejoin="round"/>
<path d="M980.103 46.8734H1085.4" stroke="#175F9F" stroke-width="2" stroke-linecap="round" stroke-linejoin="round"/>
<path d="M1025.22 68.1861V46.8734" stroke="#175F9F" stroke-width="2" stroke-linecap="round" stroke-linejoin="round"/>
<path d="M1018.14 46.8734V64.6313" stroke="#175F9F" stroke-width="2" stroke-linecap="round" stroke-linejoin="round"/>
<path d="M1064.16 64.6344V46.8755" stroke="#175F9F" stroke-width="2" stroke-linecap="round" stroke-linejoin="round"/>
<path d="M1071.24 46.8734V64.6313" stroke="#175F9F" stroke-width="2" stroke-linecap="round" stroke-linejoin="round"/>
<path d="M1011.06 25.5056V46.8785" stroke="#175F9F" stroke-width="2" stroke-linecap="round" stroke-linejoin="round"/>
<path d="M1021.68 7.80481V46.8734" stroke="#175F9F" stroke-width="2" stroke-linecap="round" stroke-linejoin="round"/>
<path d="M1032.3 25.5095V46.8764" stroke="#175F9F" stroke-width="2" stroke-linecap="round" stroke-linejoin="round"/>
<path d="M1046.46 29.0464V46.8755" stroke="#175F9F" stroke-width="2" stroke-linecap="round" stroke-linejoin="round"/>
<path d="M1057.08 25.5657V46.8714" stroke="#175F9F" stroke-width="2" stroke-linecap="round" stroke-linejoin="round"/>
<path d="M1067.7 7.80481V46.8734" stroke="#175F9F" stroke-width="2" stroke-linecap="round" stroke-linejoin="round"/>
<path d="M1078.32 25.5056V46.8644" stroke="#175F9F" stroke-width="2" stroke-linecap="round" stroke-linejoin="round"/>
<path d="M1085.37 89.0977C1076.52 90.9478 1070.99 82.0693 1070.99 82.0693C1069.63 84.251 1067.74 86.06 1065.51 87.3343C1063.27 88.6086 1060.75 89.3086 1058.18 89.3715C1055.62 89.2452 1053.13 88.5182 1050.9 87.2495C1048.68 85.9808 1046.79 84.2061 1045.38 82.0693V82.0693C1044.01 84.251 1042.13 86.06 1039.89 87.3343C1037.65 88.6087 1035.14 89.3086 1032.56 89.3715C1030.01 89.247 1027.51 88.5208 1025.29 87.2519C1023.07 85.9831 1021.17 84.2074 1019.77 82.0693C1019.77 82.0693 1012.69 91.0942 1003.99 89.2441" stroke="#175F9F" stroke-width="2" stroke-linecap="round" stroke-linejoin="round"/>
<path d="M1085.37 76.6666C1076.52 78.5167 1070.99 69.6382 1070.99 69.6382C1069.63 71.8199 1067.74 73.6289 1065.51 74.9032C1063.27 76.1775 1060.75 76.8774 1058.18 76.9404C1055.62 76.814 1053.13 76.087 1050.9 74.8183C1048.68 73.5496 1046.79 71.7749 1045.38 69.6382V69.6382C1044.01 71.8198 1042.13 73.6288 1039.89 74.9032C1037.65 76.1775 1035.14 76.8775 1032.56 76.9404C1030.01 76.816 1027.51 76.0899 1025.29 74.821C1023.07 73.5522 1021.17 71.7764 1019.77 69.6382V69.6382C1019.77 69.6382 1012.69 78.6631 1003.99 76.812" stroke="#175F9F" stroke-width="2" stroke-linecap="round" stroke-linejoin="round"/>
<path d="M918.99 113.647L922.511 99.5154C922.614 99.0932 922.856 98.7179 923.198 98.4497C923.54 98.1816 923.963 98.036 924.397 98.0363H960.265C960.7 98.0372 961.121 98.1833 961.463 98.4513C961.805 98.7193 962.047 99.0938 962.152 99.5154L965.672 113.647" stroke="#175F9F" stroke-width="2" stroke-linecap="round" stroke-linejoin="round"/>
<path d="M946.223 39.492L950.114 31.6865C950.125 30.6575 949.933 29.6364 949.547 28.6824C949.161 27.7284 948.59 26.8604 947.866 26.1286C947.143 25.3969 946.281 24.8159 945.331 24.4194C944.382 24.0229 943.363 23.8187 942.334 23.8187C941.304 23.8187 940.285 24.0229 939.336 24.4194C938.386 24.8159 937.524 25.3969 936.801 26.1286C936.077 26.8604 935.506 27.7284 935.12 28.6824C934.734 29.6364 934.542 30.6575 934.553 31.6865L938.444 39.492" stroke="#175F9F" stroke-width="2" stroke-linecap="round" stroke-linejoin="round"/>
<path d="M932.608 98.0363V55.104H916.019C911.88 55.104 910.732 53.2078 905.764 46.4802C905.549 46.1927 905.417 45.8514 905.383 45.4938C905.349 45.1361 905.414 44.7761 905.572 44.4532C905.73 44.1304 905.973 43.8573 906.276 43.664C906.579 43.4707 906.929 43.3647 907.288 43.3576C928.751 43.0067 929.443 39.494 942.332 39.494C955.221 39.494 955.909 43.0036 977.395 43.3656C977.754 43.3727 978.104 43.4787 978.407 43.672C978.71 43.8653 978.954 44.1384 979.111 44.4613C979.269 44.7841 979.334 45.1441 979.3 45.5018C979.266 45.8594 979.135 46.2008 978.919 46.4883C973.944 53.1937 972.792 55.106 968.645 55.106H952.058V98.0372" stroke="#175F9F" stroke-width="2" stroke-linecap="round" stroke-linejoin="round"/>
<path d="M932.606 74.6157C932.606 74.6157 942.335 84.3726 952.057 84.3726" stroke="#175F9F" stroke-width="2" stroke-linecap="round" stroke-linejoin="round"/>
<path d="M932.606 60.9551C936.159 63.822 940.042 66.2539 944.172 68.199" stroke="#175F9F" stroke-width="2" stroke-linecap="round" stroke-linejoin="round"/>
<path d="M923.694 42.0922C923.694 42.0922 934.552 51.2012 944.278 51.2012" stroke="#175F9F" stroke-width="2" stroke-linecap="round" stroke-linejoin="round"/>
<path d="M978.313 47.2954H985.125" stroke="#175F9F" stroke-width="2" stroke-linecap="round" stroke-linejoin="round"/>
<path d="M906.348 47.2954H899.54" stroke="#175F9F" stroke-width="2" stroke-linecap="round" stroke-linejoin="round"/>
<path d="M944.278 39.49V68.7617C944.276 69.7949 944.685 70.7863 945.415 71.5182C946.144 72.25 947.135 72.6623 948.168 72.6644H952.058" stroke="#175F9F" stroke-width="2" stroke-linecap="round" stroke-linejoin="round"/>
<path d="M952.058 55.104V40.3553" stroke="#175F9F" stroke-width="2" stroke-linecap="round" stroke-linejoin="round"/>
<path d="M1.39064 113.646V95.1072H-2.30417C-2.79052 95.1081 -3.27192 95.2048 -3.72089 95.3918C-4.16985 95.5787 -4.57758 95.8523 -4.92078 96.1968C-5.26398 96.5414 -5.53592 96.9502 -5.7211 97.3998C-5.90627 97.8494 -6.00105 98.3311 -5.99999 98.8174V113.646" stroke="#175F9F" stroke-width="2" stroke-linecap="round" stroke-linejoin="round"/>
<path d="M21.7151 42.0099V37.6469C21.713 36.1746 22.2957 34.7617 23.3352 33.7189C24.3746 32.676 25.7858 32.0885 27.2583 32.0856V32.0856C28.7309 32.0885 30.142 32.676 31.1815 33.7189C32.221 34.7617 32.8037 36.1746 32.8015 37.6469V42.0099" stroke="#175F9F" stroke-width="2" stroke-linecap="round" stroke-linejoin="round"/>
<path d="M27.2583 32.0856V28.3754" stroke="#175F9F" stroke-width="2" stroke-linecap="round" stroke-linejoin="round"/>
<path d="M23.5625 72.8629V102.525" stroke="#175F9F" stroke-width="2" stroke-linecap="round" stroke-linejoin="round"/>
<path d="M30.9531 72.8629V102.525" stroke="#175F9F" stroke-width="2" stroke-linecap="round" stroke-linejoin="round"/>
<path d="M8.78125 87.6918V102.521" stroke="#175F9F" stroke-width="2" stroke-linecap="round" stroke-linejoin="round"/>
<path d="M19.8677 48.8798V46.9175C19.8677 44.9577 20.6463 43.0781 22.0323 41.6924C23.4184 40.3066 25.2982 39.5281 27.2583 39.5281C29.2184 39.5281 31.0983 40.3066 32.4843 41.6924C33.8703 43.0781 34.649 44.9577 34.649 46.9175V48.9009" stroke="#175F9F" stroke-width="2" stroke-linecap="round" stroke-linejoin="round"/>
<path d="M12.4771 80.2804V61.7433C12.4771 57.8237 14.0344 54.0647 16.8064 51.2932C19.5784 48.5216 23.3381 46.9646 27.2583 46.9646C31.1786 46.9646 34.9382 48.5216 37.7103 51.2932C40.4823 54.0647 42.0396 57.8237 42.0396 61.7433V80.2804" stroke="#175F9F" stroke-width="2" stroke-linecap="round" stroke-linejoin="round"/>
<path d="M12.4771 65.4515H19.8677V61.7412C19.8677 59.7815 20.6464 57.902 22.0324 56.5162C23.4184 55.1304 25.2982 54.3519 27.2583 54.3519C29.2185 54.3519 31.0983 55.1304 32.4843 56.5162C33.8703 57.902 34.649 59.7815 34.649 61.7412V65.4515H42.0396" stroke="#175F9F" stroke-width="2" stroke-linecap="round" stroke-linejoin="round"/>
<path d="M1.39063 113.646V83.9876C1.38958 83.5014 1.48432 83.0198 1.66943 82.5702C1.85455 82.1206 2.12641 81.7119 2.46951 81.3674C2.8126 81.0229 3.22019 80.7493 3.66903 80.5622C4.11788 80.3752 4.59918 80.2784 5.08544 80.2773H12.4761C12.9625 80.2783 13.4439 80.375 13.8928 80.5619C14.3418 80.7489 14.7495 81.0225 15.0927 81.367C15.4359 81.7116 15.7079 82.1203 15.893 82.57C16.0782 83.0196 16.173 83.5013 16.1719 83.9876V113.646" stroke="#175F9F" stroke-width="2" stroke-linecap="round" stroke-linejoin="round"/>
<path d="M53.1252 113.646V95.1072H56.8211C57.3073 95.1082 57.7886 95.2051 58.2375 95.3921C58.6863 95.5791 59.0939 95.8527 59.437 96.1972C59.7801 96.5417 60.052 96.9505 60.2371 97.4001C60.4222 97.8496 60.5169 98.3312 60.5159 98.8174V113.646" stroke="#175F9F" stroke-width="2" stroke-linecap="round" stroke-linejoin="round"/>
<path d="M45.7344 87.6918V102.521" stroke="#175F9F" stroke-width="2" stroke-linecap="round" stroke-linejoin="round"/>
<path d="M53.125 113.646V83.9876C53.1261 83.5013 53.0313 83.0196 52.8462 82.57C52.661 82.1203 52.389 81.7116 52.0458 81.367C51.7026 81.0225 51.2949 80.7489 50.8459 80.5619C50.397 80.375 49.9156 80.2783 49.4292 80.2773H42.0386C41.5523 80.2784 41.071 80.3752 40.6222 80.5622C40.1733 80.7493 39.7657 81.0229 39.4226 81.3674C39.0795 81.7119 38.8077 82.1206 38.6226 82.5702C38.4374 83.0198 38.3427 83.5014 38.3438 83.9876V113.646" stroke="#175F9F" stroke-width="2" stroke-linecap="round" stroke-linejoin="round"/>
<path d="M550.832 79.4191H596.854" stroke="#175F9F" stroke-width="2" stroke-linecap="round" stroke-linejoin="round"/>
<path d="M573.843 14.6375V1" stroke="#175F9F" stroke-width="2" stroke-linecap="round" stroke-linejoin="round"/>
<path d="M563.222 65.7815H584.463" stroke="#175F9F" stroke-width="2" stroke-linecap="round" stroke-linejoin="round"/>
<path d="M563.222 55.5522H584.463" stroke="#175F9F" stroke-width="2" stroke-linecap="round" stroke-linejoin="round"/>
<path d="M577.383 41.4845V79.42" stroke="#175F9F" stroke-width="2" stroke-linecap="round" stroke-linejoin="round"/>
<path d="M570.302 41.4845V79.42" stroke="#175F9F" stroke-width="2" stroke-linecap="round" stroke-linejoin="round"/>
<path d="M591.546 26.5705C591.537 26.1098 591.345 25.6715 591.013 25.3519C590.681 25.0323 590.236 24.8574 589.775 24.8658H587.542C586.668 21.9116 584.862 19.3191 582.393 17.4754C579.925 15.6317 576.926 14.6355 573.845 14.6355C570.764 14.6355 567.765 15.6317 565.296 17.4754C562.828 19.3191 561.022 21.9116 560.148 24.8658H557.914C557.453 24.8574 557.008 25.0323 556.676 25.3519C556.344 25.6715 556.153 26.1098 556.144 26.5705V29.9798C556.153 30.4405 556.344 30.8788 556.676 31.1984C557.008 31.518 557.453 31.6929 557.914 31.6845H560.148C561.023 34.6376 562.829 37.2287 565.298 39.0715C567.766 40.9142 570.764 41.9098 573.845 41.9098C576.925 41.9098 579.923 40.9142 582.392 39.0715C584.86 37.2287 586.667 34.6376 587.542 31.6845H589.775C590.236 31.6929 590.681 31.518 591.013 31.1984C591.345 30.8788 591.537 30.4405 591.546 29.9798V26.5705Z" stroke="#175F9F" stroke-width="2" stroke-linecap="round" stroke-linejoin="round"/>
<path d="M560.146 24.8627H587.54" stroke="#175F9F" stroke-width="2" stroke-linecap="round" stroke-linejoin="round"/>
<path d="M560.146 31.6855H587.54" stroke="#175F9F" stroke-width="2" stroke-linecap="round" stroke-linejoin="round"/>
<path d="M379.242 46.4743C379.296 45.6729 379.185 44.8689 378.916 44.1121C378.647 43.3553 378.225 42.6618 377.677 42.0744C377.129 41.4871 376.467 41.0184 375.73 40.6973C374.994 40.3763 374.199 40.2098 373.396 40.208H363.784C363.013 40.2092 362.25 40.3623 361.539 40.6585C360.827 40.9547 360.181 41.3881 359.637 41.9341C359.094 42.4802 358.663 43.128 358.37 43.8406C358.076 44.5532 357.927 45.3167 357.929 46.0872V49.0293L343.842 67.2415C343.713 67.4053 343.633 67.6024 343.611 67.81C343.589 68.0177 343.626 68.2272 343.719 68.4144C343.812 68.6015 343.955 68.7586 344.134 68.8673C344.312 68.976 344.517 69.0319 344.726 69.0284H348.814L346.118 79.8442C346.077 80.007 346.073 80.177 346.108 80.3413C346.142 80.5056 346.214 80.6598 346.317 80.7923C346.42 80.9248 346.552 81.0321 346.703 81.1058C346.854 81.1796 347.019 81.218 347.187 81.218H352.126L349.088 88.0769C348.938 88.4138 348.874 88.783 348.903 89.1508C348.932 89.5186 349.052 89.8734 349.252 90.1829C349.453 90.4925 349.728 90.7472 350.052 90.9236C350.376 91.1001 350.739 91.1929 351.108 91.1935H374.689C375.275 91.1914 375.837 90.9568 376.251 90.5411C376.664 90.1255 376.896 89.5627 376.895 88.9764V81.6352L379.242 46.4743Z" stroke="#175F9F" stroke-width="2" stroke-linecap="round" stroke-linejoin="round"/>
<path d="M361.4 55.082L364.346 57.1106C364.51 57.2252 364.64 57.382 364.722 57.5645C364.804 57.7469 364.836 57.9481 364.813 58.147C364.791 58.3459 364.715 58.5349 364.594 58.6942C364.472 58.8535 364.311 58.9771 364.125 59.052L360.24 60.6153" stroke="#175F9F" stroke-width="2" stroke-linecap="round" stroke-linejoin="round"/>
<path d="M621.635 89.8589V100.514H589.773V91.6348C589.773 91.1647 589.959 90.7136 590.291 90.3806C590.623 90.0476 591.073 89.8599 591.544 89.8589H621.635Z" stroke="#175F9F" stroke-width="2" stroke-linecap="round" stroke-linejoin="round"/>
<path d="M669.425 89.8589C669.895 89.8599 670.345 90.0476 670.677 90.3806C671.009 90.7136 671.195 91.1647 671.195 91.6348V100.514H639.336V89.8589H669.425Z" stroke="#175F9F" stroke-width="2" stroke-linecap="round" stroke-linejoin="round"/>
<path d="M621.636 79.2034V89.8588H596.854V80.9793C596.854 80.5091 597.04 80.0581 597.372 79.7251C597.704 79.3921 598.154 79.2044 598.624 79.2034H621.636Z" stroke="#175F9F" stroke-width="2" stroke-linecap="round" stroke-linejoin="round"/>
<path d="M662.348 79.2034C662.818 79.2044 663.269 79.3921 663.601 79.7251C663.932 80.0581 664.119 80.5091 664.118 80.9793V89.8588H639.336V79.2034H662.348Z" stroke="#175F9F" stroke-width="2" stroke-linecap="round" stroke-linejoin="round"/>
<path d="M621.635 68.5491V79.2034H603.934V70.324C603.933 70.0912 603.979 69.8605 604.068 69.6453C604.156 69.43 604.287 69.2344 604.451 69.0695C604.615 68.9046 604.811 68.7737 605.026 68.6842C605.241 68.5948 605.471 68.5485 605.704 68.5481L621.635 68.5491Z" stroke="#175F9F" stroke-width="2" stroke-linecap="round" stroke-linejoin="round"/>
<path d="M655.267 68.5491C655.5 68.5495 655.731 68.5957 655.946 68.6852C656.161 68.7746 656.356 68.9056 656.52 69.0705C656.685 69.2354 656.815 69.431 656.904 69.6463C656.992 69.8615 657.038 70.0921 657.037 70.325V79.2045H639.336V68.5491H655.267Z" stroke="#175F9F" stroke-width="2" stroke-linecap="round" stroke-linejoin="round"/>
<path d="M611.015 59.6726C611.014 59.2025 611.2 58.7514 611.532 58.4184C611.864 58.0854 612.315 57.8978 612.785 57.8967H621.635V68.5521H611.015V59.6726Z" stroke="#175F9F" stroke-width="2" stroke-linecap="round" stroke-linejoin="round"/>
<path d="M648.187 57.8938C648.658 57.8949 649.108 58.0825 649.44 58.4155C649.772 58.7485 649.958 59.1996 649.958 59.6697V68.5492H639.336V57.8938H648.187Z" stroke="#175F9F" stroke-width="2" stroke-linecap="round" stroke-linejoin="round"/>
<path d="M614.555 57.8968V40.1359" stroke="#175F9F" stroke-width="2" stroke-linecap="round" stroke-linejoin="round"/>
<path d="M646.416 40.1359V57.8938" stroke="#175F9F" stroke-width="2" stroke-linecap="round" stroke-linejoin="round"/>
<path d="M611.015 34.8112C611.014 34.341 611.2 33.89 611.532 33.557C611.864 33.224 612.315 33.0363 612.785 33.0353H648.189C648.659 33.0363 649.109 33.224 649.441 33.557C649.773 33.89 649.959 34.341 649.959 34.8112V38.363C649.959 38.8331 649.773 39.2842 649.441 39.6172C649.109 39.9502 648.659 40.1378 648.189 40.1389H612.785C612.315 40.1378 611.864 39.9502 611.532 39.6172C611.2 39.2842 611.014 38.8331 611.015 38.363V34.8112Z" stroke="#175F9F" stroke-width="2" stroke-linecap="round" stroke-linejoin="round"/>
<path d="M621.635 100.514H639.336" stroke="#175F9F" stroke-width="2" stroke-linecap="round" stroke-linejoin="round"/>
<path d="M625.175 57.8978V52.5701C625.165 51.8668 625.296 51.1685 625.558 50.5159C625.821 49.8633 626.21 49.2693 626.704 48.7685C627.198 48.2677 627.787 47.8701 628.436 47.5987C629.085 47.3273 629.782 47.1875 630.485 47.1875C631.189 47.1875 631.885 47.3273 632.534 47.5987C633.183 47.8701 633.772 48.2677 634.266 48.7685C634.76 49.2693 635.15 49.8633 635.412 50.5159C635.675 51.1685 635.805 51.8668 635.795 52.5701V57.8978" stroke="#175F9F" stroke-width="2" stroke-linecap="round" stroke-linejoin="round"/>
<path d="M621.635 57.8938H639.336" stroke="#175F9F" stroke-width="2" stroke-linecap="round" stroke-linejoin="round"/>
<path d="M1225.11 104.068C1224.81 104.067 1224.51 103.989 1224.25 103.842C1223.98 103.694 1223.76 103.481 1223.6 103.224C1223.44 102.966 1223.35 102.672 1223.34 102.37C1223.33 102.068 1223.39 101.767 1223.52 101.497L1225.29 97.945C1225.44 97.6495 1225.67 97.4008 1225.95 97.227C1226.23 97.0532 1226.55 96.9612 1226.88 96.9613H1256.55C1256.88 96.9614 1257.2 97.0532 1257.48 97.2264C1257.76 97.3996 1257.99 97.6474 1258.14 97.942L1259.91 101.494C1260.04 101.764 1260.11 102.065 1260.09 102.367C1260.08 102.67 1259.99 102.964 1259.83 103.221C1259.67 103.479 1259.45 103.691 1259.18 103.839C1258.92 103.987 1258.62 104.064 1258.32 104.065L1225.11 104.068Z" stroke="#175F9F" stroke-width="2" stroke-linecap="round" stroke-linejoin="round"/>
<path d="M1254.11 96.9654L1251.65 82.1726" stroke="#175F9F" stroke-width="2" stroke-linecap="round" stroke-linejoin="round"/>
<path d="M1218.72 50.1154L1231.66 73.4858C1232.44 74.8898 1232.72 76.5151 1232.46 78.0984L1229.33 96.9614" stroke="#175F9F" stroke-width="2" stroke-linecap="round" stroke-linejoin="round"/>
<path d="M1248.79 57.8968H1236.4C1235.3 57.8967 1234.22 57.6398 1233.23 57.1464C1232.25 56.653 1231.4 55.9369 1230.74 55.055L1221.6 42.8263" stroke="#175F9F" stroke-width="2" stroke-linecap="round" stroke-linejoin="round"/>
<path d="M1247.03 43.6865V49.0142C1247.03 50.4224 1246.47 51.7729 1245.47 52.7687C1244.48 53.7644 1243.13 54.3239 1241.72 54.3239C1240.31 54.3239 1238.96 53.7644 1237.96 52.7687C1236.97 51.7729 1236.41 50.4224 1236.41 49.0142V43.6865" stroke="#175F9F" stroke-width="2" stroke-linecap="round" stroke-linejoin="round"/>
<path d="M1252.34 36.587L1250.57 43.6907H1232.87L1231.1 36.587L1238.18 38.3629L1241.72 34.8112L1245.26 38.3629L1252.34 36.587H1252.34Z" stroke="#175F9F" stroke-width="2" stroke-linecap="round" stroke-linejoin="round"/>
<path d="M1224.02 38.3629C1224.03 39.0662 1223.9 39.7645 1223.63 40.4171C1223.37 41.0697 1222.98 41.6636 1222.49 42.1644C1221.99 42.6652 1221.4 43.0629 1220.75 43.3343C1220.11 43.6057 1219.41 43.7455 1218.71 43.7455C1218 43.7455 1217.31 43.6057 1216.66 43.3343C1216.01 43.0629 1215.42 42.6652 1214.92 42.1644C1214.43 41.6636 1214.04 41.0697 1213.78 40.4171C1213.52 39.7645 1213.39 39.0662 1213.4 38.3629V36.584H1224.02V38.3629Z" stroke="#175F9F" stroke-width="2" stroke-linecap="round" stroke-linejoin="round"/>
<path d="M1224.02 29.4835C1224.03 30.1868 1223.9 30.8851 1223.63 31.5377C1223.37 32.1903 1222.98 32.7843 1222.49 33.285C1221.99 33.7858 1221.4 34.1835 1220.75 34.4549C1220.11 34.7263 1219.41 34.8661 1218.71 34.8661C1218 34.8661 1217.31 34.7263 1216.66 34.4549C1216.01 34.1835 1215.42 33.7858 1214.92 33.285C1214.43 32.7843 1214.04 32.1903 1213.78 31.5377C1213.52 30.8851 1213.39 30.1868 1213.4 29.4835C1213.4 26.5424 1218.71 22.3799 1218.71 22.3799C1218.71 22.3799 1224.02 26.5424 1224.02 29.4835Z" stroke="#175F9F" stroke-width="2" stroke-linecap="round" stroke-linejoin="round"/>
<path d="M1259.91 74.6749C1259.76 74.9701 1259.53 75.2184 1259.25 75.3917C1258.97 75.565 1258.65 75.6564 1258.32 75.6556H1249.9C1249.59 75.6549 1249.3 75.577 1249.03 75.4293C1248.77 75.2815 1248.55 75.0688 1248.39 74.8113C1248.23 74.5539 1248.14 74.2602 1248.12 73.958C1248.11 73.6558 1248.17 73.3551 1248.31 73.0845L1253.62 62.4292C1253.77 62.1347 1253.99 61.887 1254.27 61.7138C1254.55 61.5406 1254.88 61.4487 1255.21 61.4485H1263.63C1263.93 61.4491 1264.23 61.527 1264.5 61.6748C1264.76 61.8226 1264.98 62.0354 1265.14 62.293C1265.3 62.5507 1265.39 62.8446 1265.4 63.1469C1265.42 63.4492 1265.35 63.7499 1265.22 64.0206L1259.91 74.6749Z" stroke="#175F9F" stroke-width="2" stroke-linecap="round" stroke-linejoin="round"/>
<path d="M1276.57 27.7037C1301.16 35.9264 1307.52 39.4811 1322.59 56.117" stroke="#175F9F" stroke-width="2" stroke-linecap="round" stroke-linejoin="round"/>
<path d="M1297.81 35.8512V13.4977H1276.57V27.7048" stroke="#175F9F" stroke-width="2" stroke-linecap="round" stroke-linejoin="round"/>
<path d="M1322.59 73.8779V25.9308C1322.59 25.4607 1322.78 25.0096 1323.11 24.6766C1323.44 24.3436 1323.89 24.156 1324.36 24.1549H1327.9C1328.14 24.1553 1328.37 24.2016 1328.58 24.291C1328.8 24.3805 1328.99 24.5115 1329.16 24.6764C1329.32 24.8413 1329.45 25.0369 1329.54 25.2522C1329.63 25.4674 1329.67 25.698 1329.67 25.9308V31.2585H1336.75V25.9308C1336.75 25.4607 1336.94 25.0096 1337.27 24.6766C1337.6 24.3436 1338.05 24.156 1338.52 24.1549H1342.06C1342.53 24.156 1342.99 24.3436 1343.32 24.6766C1343.65 25.0096 1343.84 25.4607 1343.83 25.9308V31.2585H1350.92V25.9308C1350.91 25.4607 1351.1 25.0096 1351.43 24.6766C1351.76 24.3436 1352.22 24.156 1352.69 24.1549H1356.23C1356.46 24.1553 1356.69 24.2016 1356.9 24.291C1357.12 24.3805 1357.31 24.5115 1357.48 24.6764C1357.64 24.8413 1357.77 25.0369 1357.86 25.2522C1357.95 25.4674 1358 25.698 1358 25.9308V63.2225C1351.63 68.1035 1346.23 74.1252 1342.07 80.9805V80.9805" stroke="#175F9F" stroke-width="2" stroke-linecap="round" stroke-linejoin="round"/>
<path d="M1297.81 27.7037C1306.45 30.2934 1314.77 33.8686 1322.59 38.3591" stroke="#175F9F" stroke-width="2" stroke-linecap="round" stroke-linejoin="round"/>
<path d="M1322.59 63.2206C1306.43 65.1208 1280.08 67.1664 1251.75 80.9785" stroke="#175F9F" stroke-width="2" stroke-linecap="round" stroke-linejoin="round"/>
<path d="M1322.59 73.876L1321.89 73.9502C1311.48 74.9912 1301.24 77.353 1291.42 80.9786V80.9786" stroke="#175F9F" stroke-width="2" stroke-linecap="round" stroke-linejoin="round"/>
<path d="M1322.59 73.879H1329.67V51.6807C1329.67 50.1674 1329.97 48.6685 1330.54 47.2694C1331.12 45.8703 1331.97 44.5985 1333.03 43.5267C1334.1 42.4548 1335.37 41.6039 1336.77 41.0225C1338.17 40.441 1339.67 40.1404 1341.18 40.1379V40.1379C1342.46 40.14 1343.73 40.3944 1344.91 40.8863C1346.09 41.3783 1347.17 42.0984 1348.07 43.0053C1348.97 43.9123 1349.69 44.9884 1350.18 46.1723C1350.67 47.3561 1350.92 48.6244 1350.91 49.9048V69.5319" stroke="#175F9F" stroke-width="2" stroke-linecap="round" stroke-linejoin="round"/>
<path d="M1283.65 30.1274V24.1539C1283.65 23.2136 1284.02 22.3112 1284.69 21.6452C1285.35 20.9792 1286.25 20.604 1287.19 20.6022C1288.13 20.604 1289.03 20.9792 1289.7 21.6452C1290.36 22.3112 1290.73 23.2136 1290.73 24.1539V32.7597" stroke="#175F9F" stroke-width="2" stroke-linecap="round" stroke-linejoin="round"/>
<path d="M1276.57 27.7037V41.9099C1283.36 43.3042 1289.75 46.2036 1295.26 50.3944C1300.78 54.5852 1305.29 59.9607 1308.45 66.1245" stroke="#175F9F" stroke-width="2" stroke-linecap="round" stroke-linejoin="round"/>
<path d="M1287.19 13.4995V9.9458" stroke="#175F9F" stroke-width="2" stroke-linecap="round" stroke-linejoin="round"/>
<path d="M1276.57 13.4995V9.9458" stroke="#175F9F" stroke-width="2" stroke-linecap="round" stroke-linejoin="round"/>
<path d="M1297.81 13.4995V9.9458" stroke="#175F9F" stroke-width="2" stroke-linecap="round" stroke-linejoin="round"/>
<path d="M252.255 47.5291C252.129 47.9082 251.887 48.238 251.563 48.472C251.239 48.7059 250.85 48.8321 250.45 48.8327H184.768C184.368 48.8321 183.979 48.7059 183.655 48.472C183.331 48.238 183.089 47.9082 182.962 47.5291L177.436 30.8913C177.316 30.5302 177.306 30.1413 177.409 29.7747C177.511 29.4081 177.721 29.0806 178.012 28.8345C178.302 28.5884 178.659 28.4349 179.038 28.3938C179.416 28.3527 179.799 28.4259 180.135 28.604C191.78 34.3824 204.603 37.3908 217.604 37.3941C230.604 37.3974 243.429 34.3954 255.077 28.623C255.413 28.4448 255.795 28.3716 256.174 28.4127C256.553 28.4538 256.91 28.6073 257.201 28.8536C257.491 29.0999 257.701 29.4276 257.804 29.7944C257.906 30.1612 257.896 30.5503 257.775 30.9114L252.255 47.5291Z" stroke="#175F9F" stroke-width="2" stroke-linecap="round" stroke-linejoin="round"/>
<path d="M202.406 48.8187V111.74C202.406 112.244 202.206 112.728 201.85 113.085C201.494 113.443 201.01 113.644 200.506 113.645H193.139C192.869 113.646 192.603 113.59 192.356 113.48C192.11 113.371 191.89 113.21 191.71 113.008C191.531 112.806 191.397 112.568 191.316 112.31C191.234 112.053 191.208 111.781 191.239 111.512L198.605 48.8177" stroke="#175F9F" stroke-width="2" stroke-linecap="round" stroke-linejoin="round"/>
<path d="M232.814 48.8187V111.74C232.814 112.244 233.015 112.728 233.371 113.086C233.727 113.443 234.21 113.644 234.715 113.645H242.082C242.352 113.646 242.619 113.59 242.866 113.48C243.113 113.37 243.333 113.209 243.513 113.007C243.693 112.806 243.828 112.568 243.908 112.31C243.989 112.053 244.014 111.781 243.982 111.512L236.616 48.8177" stroke="#175F9F" stroke-width="2" stroke-linecap="round" stroke-linejoin="round"/>
<path d="M217.61 48.8187V67.8882" stroke="#175F9F" stroke-width="2" stroke-linecap="round" stroke-linejoin="round"/>
<path d="M202.405 67.8862H232.813" stroke="#175F9F" stroke-width="2" stroke-linecap="round" stroke-linejoin="round"/>
<path d="M238.85 67.8862H259.486" stroke="#175F9F" stroke-width="2" stroke-linecap="round" stroke-linejoin="round"/>
<path d="M196.37 67.8862H187.202" stroke="#175F9F" stroke-width="2" stroke-linecap="round" stroke-linejoin="round"/>
<path d="M469.408 86.3101C466.766 86.1808 464.185 85.4786 461.841 84.2519C459.498 83.0253 457.45 81.3037 455.839 79.2065C454.319 81.3985 452.29 83.1896 449.926 84.4266C447.563 85.6637 444.935 86.3099 442.267 86.3099C439.6 86.3099 436.972 85.6637 434.608 84.4266C432.245 83.1896 430.216 81.3985 428.696 79.2065C427.176 81.3985 425.147 83.1896 422.784 84.4266C420.421 85.6637 417.793 86.3099 415.125 86.3099C412.457 86.3099 409.829 85.6637 407.466 84.4266C405.102 83.1896 403.074 81.3985 401.554 79.2065C399.942 81.3037 397.894 83.0253 395.551 84.2519C393.208 85.4786 390.626 86.1808 387.984 86.3101" stroke="#175F9F" stroke-width="2" stroke-linecap="round" stroke-linejoin="round"/>
<path d="M460.557 22.38C462.301 22.3914 464.009 21.8893 465.469 20.9364C466.929 19.9835 468.077 18.6219 468.768 17.0215C469.459 15.421 469.664 13.6525 469.356 11.9366C469.049 10.2206 468.243 8.6331 467.039 7.37198C465.835 6.11086 464.287 5.23191 462.587 4.84488C460.887 4.45784 459.11 4.57975 457.479 5.19545C455.848 5.81115 454.434 6.8934 453.414 8.30717C452.394 9.72094 451.812 11.4037 451.743 13.1456C451.105 12.5617 450.334 12.1421 449.497 11.9235C448.66 11.7048 447.783 11.6936 446.941 11.8908C446.099 12.0879 445.318 12.4876 444.665 13.055C444.012 13.6224 443.508 14.3403 443.196 15.1467C442.884 15.9531 442.773 16.8235 442.873 17.6824C442.974 18.5412 443.282 19.3626 443.772 20.0753C444.262 20.788 444.918 21.3704 445.684 21.772C446.45 22.1736 447.302 22.3823 448.167 22.38H460.557Z" stroke="#175F9F" stroke-width="2" stroke-linecap="round" stroke-linejoin="round"/>
<path d="M377.693 72.101H516.551" stroke="#175F9F" stroke-width="2" stroke-linecap="round" stroke-linejoin="round"/>
<path d="M434.007 72.103L448.167 57.8969L462.327 72.103" stroke="#175F9F" stroke-width="2" stroke-linecap="round" stroke-linejoin="round"/>
<path d="M448.167 57.8938C448.167 57.8938 443.21 31.2914 418.833 32.7765C418.547 32.7941 418.27 32.8814 418.025 33.0306C417.78 33.1799 417.576 33.3866 417.429 33.6329C417.28 33.8795 417.193 34.1587 417.176 34.4464C417.158 34.734 417.211 35.0216 417.329 35.2845L434.007 72.1009" stroke="#175F9F" stroke-width="2" stroke-linecap="round" stroke-linejoin="round"/>
<path d="M412.763 72.104L399.638 44.113C399.515 43.8548 399.457 43.5708 399.468 43.2853C399.479 42.9997 399.558 42.7211 399.7 42.473C399.842 42.2249 400.042 42.0147 400.282 41.8604C400.523 41.7062 400.797 41.6124 401.082 41.587C406.576 41.1229 412.076 42.4066 416.797 45.2547C421.518 48.1028 425.218 52.3695 427.368 57.4456L412.763 72.104Z" stroke="#175F9F" stroke-width="2" stroke-linecap="round" stroke-linejoin="round"/>
<path d="M408.233 62.4505L398.605 72.122L389.099 56.2213C388.958 55.9849 388.874 55.7191 388.853 55.4447C388.832 55.1703 388.875 54.8948 388.979 54.6399C389.08 54.3851 389.24 54.1577 389.446 53.9757C389.651 53.7937 389.896 53.6623 390.161 53.592C401.288 50.5847 408.233 62.4505 408.233 62.4505Z" stroke="#175F9F" stroke-width="2" stroke-linecap="round" stroke-linejoin="round"/>
<path d="M448.167 57.8939C448.167 57.8939 454.639 49.7776 467.585 53.7204C467.82 53.7924 468.038 53.9124 468.225 54.0731C468.411 54.2337 468.563 54.4314 468.669 54.6535C468.775 54.8757 468.834 55.1173 468.842 55.3634C468.849 55.6094 468.806 55.8545 468.714 56.0829L462.327 72.101" stroke="#175F9F" stroke-width="2" stroke-linecap="round" stroke-linejoin="round"/>
<path d="M336.325 70.5938L306.351 34.1293C306.181 33.9269 305.968 33.7641 305.728 33.6524C305.489 33.5408 305.228 33.4829 304.963 33.4829C304.699 33.4829 304.437 33.5408 304.198 33.6524C303.958 33.7641 303.746 33.9269 303.576 34.1293L290.193 50.4102" stroke="#175F9F" stroke-width="2" stroke-linecap="round" stroke-linejoin="round"/>
<path d="M290.313 73.3574H260.851C260.522 73.3597 260.199 73.2706 259.918 73.0999C259.637 72.9292 259.408 72.6836 259.259 72.3907C259.114 72.102 259.057 71.7771 259.094 71.4563C259.132 71.1355 259.263 70.8328 259.471 70.5857L277.031 49.4465C277.2 49.2454 277.412 49.0838 277.65 48.9729C277.888 48.862 278.148 48.8046 278.411 48.8046C278.674 48.8046 278.934 48.862 279.173 48.9729C279.411 49.0838 279.622 49.2454 279.792 49.4465L294.218 66.8163" stroke="#175F9F" stroke-width="2" stroke-linecap="round" stroke-linejoin="round"/>
<path d="M328.373 92.9744L331.761 89.7104C332.087 89.3999 332.347 89.0266 332.526 88.613C332.704 88.1995 332.796 87.7541 332.798 87.3038V83.5936C332.798 74.1787 324.875 66.5466 315.097 66.5466C305.32 66.5466 297.396 74.1787 297.396 83.5936V87.2978C297.398 87.7482 297.491 88.1936 297.669 88.6072C297.847 89.0208 298.107 89.394 298.434 89.7044L301.821 92.9684" stroke="#175F9F" stroke-width="2" stroke-linecap="round" stroke-linejoin="round"/>
<path d="M332.795 104.043V100.633C332.789 99.5436 332.563 98.4663 332.131 97.466C331.698 96.4657 331.068 95.5631 330.278 94.8124L319.122 84.0688" stroke="#175F9F" stroke-width="2" stroke-linecap="round" stroke-linejoin="round"/>
<path d="M308.014 110.863H322.172" stroke="#175F9F" stroke-width="2" stroke-linecap="round" stroke-linejoin="round"/>
<path d="M311.051 84.0688L299.897 94.8124C299.108 95.5644 298.479 96.468 298.048 97.469C297.617 98.47 297.393 99.5477 297.389 100.637V104.047" stroke="#175F9F" stroke-width="2" stroke-linecap="round" stroke-linejoin="round"/>
<path d="M322.175 73.3574C322.103 71.5283 321.325 69.7981 320.005 68.5295C318.685 67.2609 316.925 66.5524 315.095 66.5524C313.264 66.5524 311.504 67.2609 310.184 68.5295C308.864 69.7981 308.087 71.5283 308.014 73.3574V78.4715C308.087 80.3006 308.864 82.0308 310.184 83.2994C311.504 84.568 313.264 85.2765 315.095 85.2765C316.925 85.2765 318.685 84.568 320.005 83.2994C321.325 82.0308 322.103 80.3006 322.175 78.4715V73.3574Z" stroke="#175F9F" stroke-width="2" stroke-linecap="round" stroke-linejoin="round"/>
<path d="M297.393 104.047H304.474C305.396 104.03 306.286 104.38 306.95 105.019C307.614 105.659 307.997 106.535 308.014 107.456V110.866H293.853V107.456C293.871 106.535 294.254 105.659 294.918 105.019C295.581 104.38 296.472 104.03 297.393 104.047V104.047Z" stroke="#175F9F" stroke-width="2" stroke-linecap="round" stroke-linejoin="round"/>
<path d="M325.715 104.047H332.796C333.717 104.03 334.608 104.38 335.272 105.019C335.935 105.659 336.318 106.535 336.336 107.456V110.866H322.175V107.456C322.193 106.535 322.576 105.659 323.239 105.019C323.903 104.38 324.794 104.03 325.715 104.047V104.047Z" stroke="#175F9F" stroke-width="2" stroke-linecap="round" stroke-linejoin="round"/>
<path d="M490.807 111.712C490.785 111.958 490.815 112.205 490.894 112.439C490.972 112.673 491.099 112.888 491.266 113.07C491.432 113.252 491.635 113.397 491.861 113.497C492.087 113.596 492.331 113.648 492.578 113.647H529.586C529.586 113.647 527.816 78.1305 510.115 78.1305C494.94 78.1275 491.48 104.3 490.807 111.712Z" stroke="#175F9F" stroke-width="2" stroke-linecap="round" stroke-linejoin="round"/>
<path d="M515.355 79.3238C518.227 65.7244 523.494 53.2681 533.13 53.2681C552.169 53.2681 554.145 101.773 554.351 111.834C554.356 112.07 554.314 112.305 554.227 112.524C554.14 112.743 554.011 112.943 553.846 113.112C553.681 113.281 553.484 113.415 553.267 113.507C553.05 113.598 552.816 113.646 552.58 113.646H538.444" stroke="#175F9F" stroke-width="2" stroke-linecap="round" stroke-linejoin="round"/>
<path d="M518.853 67.3368L526.061 74.5677L533.142 67.4641L540.222 74.5677L547.469 67.2977" stroke="#175F9F" stroke-width="2" stroke-linecap="round" stroke-linejoin="round"/>
<path d="M501.506 53.269C503.376 53.0332 505.097 52.1305 506.355 50.7268C507.612 49.3232 508.32 47.5131 508.349 45.6291C508.352 44.6049 508.149 43.5907 507.751 42.6471C507.353 41.7035 506.768 40.8498 506.033 40.1372C505.297 39.4247 504.425 38.8678 503.469 38.5C502.513 38.1323 501.493 37.9612 500.469 37.9969C499.606 36.1797 498.242 34.6463 496.537 33.5767C494.833 32.5071 492.859 31.9457 490.847 31.9583C488.095 31.9332 485.435 32.9458 483.396 34.7942C481.358 36.6426 480.091 39.1911 479.848 41.9319C479.013 41.7554 478.15 41.7677 477.322 41.9678C476.493 42.168 475.719 42.5509 475.058 43.0886C474.396 43.6263 473.863 44.3051 473.498 45.0754C473.133 45.8457 472.945 46.6878 472.947 47.5402C472.954 48.3224 473.12 49.0953 473.433 49.8118C473.747 50.5284 474.203 51.1738 474.774 51.7093C475.344 52.2447 476.017 52.659 476.752 52.9271C477.487 53.1952 478.269 53.3115 479.05 53.269H501.506Z" stroke="#175F9F" stroke-width="2" stroke-linecap="round" stroke-linejoin="round"/>
</svg>
